<?xml version="1.0" encoding="utf-8"?>
<!-- Generator: Adobe Illustrator 21.1.0, SVG Export Plug-In . SVG Version: 6.00 Build 0)  -->
<svg version="1.1" id="Layer_2" xmlns="http://www.w3.org/2000/svg" xmlns:xlink="http://www.w3.org/1999/xlink" x="0px" y="0px"
	 viewBox="0 0 716.6 273.5" style="enable-background:new 0 0 716.6 273.5;" xml:space="preserve">
<style type="text/css">
	.st0{fill:#4A4A4A;}
</style>
<path class="st0" d="M233.4,185.9v82.6h-23v-62.8c0-10.9-8.9-20.2-19.8-20.2h-62.2v-19.1c2-0.2,1.8,0.1,2.9,0.1h82.3
	C224.6,166.5,233.4,175,233.4,185.9z"/>
<path class="st0" d="M342.4,268.2l-1.9-16.6h-0.8c-7.2,10.3-21.1,19.6-39.6,19.6c-26.2,0-39.6-18.8-39.6-37.8
	c0-31.8,27.8-49.2,77.9-49v-2.7c0-10.9-2.9-30.5-29.4-30.5c-12,0-24.6,3.8-33.7,9.8l-5.4-15.8c10.7-7.1,26.2-11.7,42.6-11.7
	c39.6,0,49.2,27.5,49.2,53.9v49.2c0,11.4,0.5,22.6,2.1,31.6H342.4z M338.9,201c-25.7-0.5-54.9,4.1-54.9,29.7
	c0,15.5,10.2,22.9,22.2,22.9c16.9,0,27.6-10.9,31.3-22c0.8-2.4,1.3-5.2,1.3-7.6V201z"/>
<path class="st0" d="M427,98.7v37.8h33.7v18.2H427v71c0,16.3,4.5,25.6,17.7,25.6c6.2,0,10.7-0.8,13.6-1.6l1.1,18
	c-4.5,1.9-11.8,3.3-20.9,3.3c-11,0-19.8-3.5-25.4-10.1c-6.7-7.1-9.1-18.8-9.1-34.3v-71.8h-20.1v-18.2H404V105L427,98.7z"/>
<path class="st0" d="M498.7,206.7c0.5,32.4,20.9,45.7,44.4,45.7c16.9,0,27-3,35.9-6.8l4,17.1c-8.3,3.8-22.5,8.2-43.1,8.2
	c-39.9,0-63.7-26.7-63.7-66.4s23-71,60.7-71c42.3,0,53.5,37.8,53.5,62c0,4.9-0.5,8.7-0.8,11.2H498.7z M567.8,189.6
	c0.3-15.2-6.2-38.9-32.6-38.9c-23.8,0-34.3,22.3-36.1,38.9H567.8z"/>
<path class="st0" d="M616.5,243.7c7,4.6,19.3,9.5,31,9.5c17.1,0,25.2-8.7,25.2-19.6c0-11.4-6.7-17.7-24.1-24.2
	c-23.3-8.4-34.3-21.5-34.3-37.3c0-21.2,16.9-38.6,44.7-38.6c13.1,0,24.6,3.8,31.8,8.2l-5.9,17.4c-5.1-3.3-14.5-7.6-26.5-7.6
	c-13.9,0-21.7,8.2-21.7,18c0,10.9,7.8,15.8,24.6,22.3c22.5,8.7,34,20.1,34,39.7c0,23.1-17.7,39.4-48.4,39.4c-14.2,0-27.3-3.5-36.4-9
	L616.5,243.7z"/>
<g>
	<path class="st0" d="M707.7,273.5c-2.6,0-4.7-0.8-6.4-2.5c-1.7-1.7-2.5-3.8-2.5-6.3c0-2.5,0.9-4.6,2.6-6.2c1.7-1.7,3.9-2.5,6.4-2.5
		c2.6,0,4.7,0.8,6.4,2.4c1.7,1.6,2.5,3.7,2.4,6.3c0,2.5-0.9,4.6-2.6,6.3C712.3,272.7,710.2,273.5,707.7,273.5z M707.7,257.5
		c-2.1,0-3.8,0.7-5.2,2c-1.4,1.4-2,3.1-2,5.1c0,2.1,0.7,3.8,2.1,5.1c1.4,1.4,3.1,2,5.2,2c2,0,3.7-0.7,5.1-2.1
		c1.4-1.4,2.1-3.1,2.1-5.1c0-2.1-0.7-3.8-2.1-5.1C711.5,258.2,709.7,257.5,707.7,257.5z M712.3,269.9h-3l-0.9-2.7
		c-0.3-0.9-0.7-1.4-1.3-1.4h-0.7v4.1h-2.6v-10.8h3.8c2.9,0,4.3,1,4.3,3.1c0,1.5-0.8,2.4-2.5,2.9v0c0.7,0.2,1.3,0.7,1.7,1.7
		L712.3,269.9z M706.4,261.2v2.6h1.1c1.1,0,1.6-0.4,1.6-1.3c0-0.8-0.6-1.3-1.9-1.3H706.4z"/>
</g>
<g>
	<path class="st0" d="M317.8,61.8h-0.2c-0.7,1.8-1.8,3.6-3.1,5h3.6L317.8,61.8z"/>
	<path class="st0" d="M331.1,0h-68v66.8h14.1c-4.7-4.1-7.3-12.5-7.3-23.6c0-15.7,5.2-28,13.7-28c9.5,0,12,14.9,12,24.5
		c0,1.9-0.1,3.4-0.2,4.4h-20.5c0.1,12.8,4.7,18.1,10,18.1c3.8,0,6.1-1.2,8.1-2.7l0.9,6.8c-0.2,0.2-0.5,0.4-0.8,0.6h10.2
		c-2.3-2.8-3.5-7.5-3.5-12.2c0-12.6,6.3-19.4,17.5-19.3v-1.1c0-4.3-0.7-12-6.6-12c-2.7,0-5.5,1.5-7.6,3.9l-1.2-6.2
		c2.4-2.8,5.9-4.6,9.6-4.6c8.9,0,11.1,10.9,11.1,21.3v19.4c0,3.9,0.1,7.6,0.3,10.9h8.2V0z"/>
	<path class="st0" d="M283.1,22c-5.4,0-7.7,8.8-8.1,15.4h15.5C290.5,31.3,289,22,283.1,22z"/>
	<path class="st0" d="M317.1,53.9c0.2-1,0.3-2,0.3-3v-9c-5.8-0.2-12.3,1.6-12.3,11.7c0,6.1,2.3,9,5,9
		C313.9,62.6,316.3,58.3,317.1,53.9z"/>
	<path class="st0" d="M336.4,66.8h13c-0.3-0.4-0.6-0.8-0.8-1.3c-1.5-2.8-2-7.4-2-13.5V23.6H342v-7.2h4.5V3.9l5.2-2.5v14.9h7.6v7.2
		h-7.6v28c0,6.4,1,10.1,4,10.1c1.4,0,2.4-0.3,3.1-0.6l0.2,5.7h6.3V0h-28.8V66.8z"/>
	<rect x="238.2" class="st0" width="19.6" height="26.2"/>
	<path class="st0" d="M377.9,23c-3.4,0-6.1,4.3-7.1,9.5c-0.3,1.3-0.4,2.7-0.4,4.5v29.8h14.2V38.5C384.7,30.1,382.9,23,377.9,23z"/>
	<path class="st0" d="M370.5,0v24.5h0.1c0.8-2.7,2.2-5.1,3.8-6.7c1.6-1.6,3.4-2.7,5.4-2.7c3.9,0,10.2,4.3,10.2,22.2v29.4h14.1
		c-4.7-4.1-7.6-12.7-7.6-23.9c0-16,6.1-27.6,15.6-27.6c3.1,0,5.9,1.4,7.3,2.7l-1.2,7.3c-1.3-1.3-3.2-2.5-6.1-2.5
		c-6.7,0-10.3,8.8-10.3,19.7c0,12,4.3,19.4,10.1,19.4c3,0,5-1.4,6.5-2.6l0.9,7.1c-0.1,0.1-0.3,0.2-0.4,0.4h7.8
		c-2.3-2.8-3.5-7.5-3.5-12.2c0-12.6,6.3-19.4,17.5-19.3v-1.1c0-4.3-0.7-12-6.6-12c-2.7,0-5.5,1.5-7.6,3.9l-1.2-6.2
		c2.4-2.8,5.9-4.6,9.6-4.6c8.9,0,11.1,10.9,11.1,21.3v19.4c0,3.9,0.1,7.6,0.3,10.9h8.2V32.6c0-6.1-0.1-11.4-0.2-16.2h4.6l0.2,10.2
		h0.2c1.3-7,4.5-11.4,8.1-11.4c0.6,0,1,0.1,1.5,0.3v8.9c-0.5-0.2-1.1-0.3-1.8-0.3c-3.7,0-6.4,5.1-7.1,12.1c-0.1,1.3-0.2,2.8-0.2,4.4
		v26.1h19.1c-4.7-4.1-7.3-12.5-7.3-23.6c0-15.7,5.2-28,13.7-28c9.5,0,12,14.9,12,24.5c0,1.9-0.1,3.4-0.2,4.4h-20.5
		c0.1,12.8,4.7,18.1,10,18.1c3.8,0,6.1-1.2,8.1-2.7l0.9,6.8c-0.2,0.2-0.5,0.4-0.8,0.6h6.5V0H370.5z"/>
	<path class="st0" d="M441.2,61.8H441c-0.7,1.8-1.8,3.6-3.1,5h3.6L441.2,61.8z"/>
	<path class="st0" d="M484.7,22c-5.4,0-7.7,8.8-8.1,15.4H492C492.1,31.3,490.7,22,484.7,22z"/>
	<path class="st0" d="M88.9,176.2c0-57.9,63.6-105.6,144-109.2V0h-63.4C75.9,0,0,59.9,0,133.7c0,70.6,69.3,128.3,157.1,133.4
		C116,247.4,88.9,214,88.9,176.2z M47.9,93.9l-2.4,1.5c0,0-2.1-26.6,32.6-45.2c14.7-7.9,35.9-14.3,66.7-16.7l-0.5,0.3
		c-21.5,4.2-38.3,9.9-51.6,16.3C64,64.2,52.5,81.5,47.9,93.9z"/>
	<path class="st0" d="M440.6,53.9c0.2-1,0.3-2,0.3-3v-9c-5.8-0.2-12.3,1.6-12.3,11.7c0,6.1,2.3,9,5,9
		C437.3,62.6,439.7,58.3,440.6,53.9z"/>
	<path class="st0" d="M257.8,34.4h-19.6v32.4c1.6,0,3.1-0.1,4.7-0.1h14.9V34.4z"/>
</g>
</svg>
