<svg xmlns="http://www.w3.org/2000/svg" viewBox="0 0 28.568 28.549">
  <defs>
    <style>
      .cls-1 {
        fill: #4a4a4a;
      }
    </style>
  </defs>
  <g id="Group_35" data-name="Group 35" transform="translate(0)">
    <path id="Path_34" data-name="Path 34" class="cls-1" d="M28.554,22.719a1.381,1.381,0,0,1-.423,1.21L24.109,27.92a2.264,2.264,0,0,1-.711.514,2.937,2.937,0,0,1-.862.272q-.03,0-.182.015t-.393.015a13.942,13.942,0,0,1-1.86-.2,14.125,14.125,0,0,1-3.145-.968,26.4,26.4,0,0,1-4.219-2.314,31.455,31.455,0,0,1-5.02-4.234,33.14,33.14,0,0,1-3.508-3.992A28.443,28.443,0,0,1,1.971,13.51,18.976,18.976,0,0,1,.7,10.576,15.564,15.564,0,0,1,.126,8.308a7.491,7.491,0,0,1-.121-1.5q.03-.544.03-.6a2.94,2.94,0,0,1,.272-.862,2.266,2.266,0,0,1,.514-.711L4.844.611A1.332,1.332,0,0,1,5.812.188a1.128,1.128,0,0,1,.7.227,2.1,2.1,0,0,1,.514.559l3.236,6.139a1.472,1.472,0,0,1,.151,1.058,1.885,1.885,0,0,1-.514.968L8.413,10.622a.5.5,0,0,0-.106.2.746.746,0,0,0-.045.227A5.461,5.461,0,0,0,8.806,12.5a13.326,13.326,0,0,0,1.119,1.769,19.644,19.644,0,0,0,2.147,2.4,20.032,20.032,0,0,0,2.419,2.162,13.972,13.972,0,0,0,1.769,1.134,4.7,4.7,0,0,0,1.089.438l.378.076a.721.721,0,0,0,.2-.045.5.5,0,0,0,.2-.106l1.724-1.754a1.853,1.853,0,0,1,1.27-.484,1.58,1.58,0,0,1,.817.181h.03L27.8,21.721A1.521,1.521,0,0,1,28.554,22.719Z" transform="translate(0 -0.188)"/>
  </g>
</svg>
